<?xml version="1.0" standalone="no"?><!DOCTYPE svg PUBLIC "-//W3C//DTD SVG 1.1//EN" "http://www.w3.org/Graphics/SVG/1.1/DTD/svg11.dtd"><svg t="1739012313394" class="icon" viewBox="0 0 1077 1024" version="1.1" xmlns="http://www.w3.org/2000/svg" p-id="1669" xmlns:xlink="http://www.w3.org/1999/xlink" width="210.3515625" height="200"><path d="M555.115789 0c37.726316 0 64.673684 37.726316 64.673685 86.231579v86.231579c0 48.505263-26.947368 86.231579-64.673685 86.231579s-64.673684-37.726316-64.673684-86.231579V86.231579c0-48.505263 26.947368-86.231579 64.673684-86.231579zM883.873684 118.568421c26.947368 21.557895 26.947368 70.063158-5.389473 107.789474l-53.894737 64.673684c-32.336842 37.726316-75.452632 48.505263-102.4 26.947368s-26.947368-70.063158 5.389473-107.789473l53.894737-64.673685c26.947368-37.726316 75.452632-48.505263 102.4-26.947368zM1061.726316 425.768421c5.389474 37.726316-26.947368 70.063158-75.452632 80.842105l-86.231579 16.168421c-48.505263 10.778947-91.621053-16.168421-97.010526-48.505263-5.389474-37.726316 26.947368-70.063158 75.452632-80.842105l86.231578-16.168421c48.505263-5.389474 91.621053 16.168421 97.010527 48.505263zM1002.442105 776.084211c-16.168421 32.336842-64.673684 37.726316-107.789473 10.778947l-75.452632-43.11579c-43.115789-21.557895-59.284211-70.063158-43.115789-97.010526 16.168421-32.336842 64.673684-37.726316 107.789473-10.778947l75.452632 43.115789c43.115789 21.557895 59.284211 64.673684 43.115789 97.010527zM727.578947 1002.442105c-32.336842 10.778947-75.452632-16.168421-91.621052-59.28421l-26.947369-80.842106c-16.168421-43.115789 0-91.621053 32.336842-102.4 32.336842-10.778947 75.452632 16.168421 91.621053 59.284211l26.947368 80.842105c16.168421 43.115789 5.389474 91.621053-32.336842 102.4zM377.263158 1002.442105c-32.336842-10.778947-48.505263-59.284211-32.336842-102.4l26.947368-80.842105c16.168421-43.115789 59.284211-70.063158 91.621053-59.284211s48.505263 59.284211 32.336842 102.4l-26.947368 80.842106c-21.557895 48.505263-59.284211 70.063158-91.621053 59.28421zM102.4 776.084211c-16.168421-32.336842 0-75.452632 43.115789-97.010527l75.452632-43.115789c43.115789-21.557895 91.621053-16.168421 107.789474 10.778947 16.168421 32.336842 0 75.452632-43.11579 97.010526l-75.452631 43.11579c-37.726316 26.947368-86.231579 21.557895-107.789474-10.778947zM43.115789 425.768421c5.389474-32.336842 48.505263-53.894737 97.010527-48.505263l86.231579 16.168421c43.115789 10.778947 75.452632 43.115789 70.063158 80.842105-5.389474 32.336842-48.505263 53.894737-97.010527 48.505263l-80.842105-16.168421C70.063158 495.831579 37.726316 463.494737 43.115789 425.768421zM220.968421 118.568421c26.947368-21.557895 75.452632-10.778947 102.4 26.947368l53.894737 64.673685c32.336842 37.726316 32.336842 86.231579 5.389474 107.789473-21.557895 21.557895-70.063158 10.778947-102.4-21.557894l-53.894737-64.673685c-32.336842-37.726316-32.336842-86.231579-5.389474-113.178947z" fill="#ffffff" p-id="1670"></path></svg>